<svg width="190" height="190" viewBox="0 0 190 190" fill="none" xmlns="http://www.w3.org/2000/svg">
  <rect width="190" height="190" rx="95" fill="#D0CEFB"/>
  <g clip-path="url(#clip0)">
    <path fill-rule="evenodd" clip-rule="evenodd" d="M144.099 40.9984C145.143 40.9984 145.988 41.8557 145.931 42.8983C145.231 55.8461 139.799 68.096 130.654 77.2408C121.509 86.3856 109.343 91.7345 96.5447 92.2855C95.5102 92.33 94.6667 91.4889 94.6667 90.4534V42.8651C94.6667 41.8341 95.5024 40.9984 96.5333 40.9984H144.099Z" fill="#3F177F"/>
    <path d="M59.6667 92.3317C73.842 92.3317 85.3333 80.8404 85.3333 66.6651C85.3333 52.4898 73.842 40.9984 59.6667 40.9984C45.4914 40.9984 34 52.4898 34 66.6651C34 80.8404 45.4914 92.3317 59.6667 92.3317Z" fill="#3F177F"/>
    <path fill-rule="evenodd" clip-rule="evenodd" d="M145.931 151.098C145.988 152.141 145.143 152.998 144.099 152.998L88.3667 152.998C74.8293 152.752 58.882 147.264 49.3081 137.69C40.1831 128.565 34.7703 116.406 34.0692 103.565C34.0122 102.522 34.8568 101.665 35.901 101.665H94.0367C107.684 101.749 120.757 107.165 130.466 116.756C139.723 125.901 145.222 138.15 145.931 151.098Z" fill="#3F177F"/>
  </g>
  <defs>
    <clipPath id="clip0">
      <rect width="112" height="112" fill="white" transform="translate(34 41)"/>
    </clipPath>
  </defs>
</svg>
